<?xml version="1.0" encoding="UTF-8"?>
<!DOCTYPE svg PUBLIC "-//W3C//DTD SVG 1.1//EN" "http://www.w3.org/Graphics/SVG/1.1/DTD/svg11.dtd">
<!-- Creator: CorelDRAW 2021 (64 Bit) -->
<svg xmlns="http://www.w3.org/2000/svg" xml:space="preserve" width="200mm" height="36.303mm" version="1.1" style="shape-rendering:geometricPrecision; text-rendering:geometricPrecision; image-rendering:optimizeQuality; fill-rule:evenodd; clip-rule:evenodd"
viewBox="0 0 20000 3630.3"
 xmlns:xlink="http://www.w3.org/1999/xlink"
 xmlns:xodm="http://www.corel.com/coreldraw/odm/2003">
 <defs>
  <style type="text/css">
   <![CDATA[
    .fil1 {fill:#74FF00}
    .fil0 {fill:#F6F6F6}
   ]]>
  </style>
 </defs>
 <g id="Camada_x0020_1">
  <metadata id="CorelCorpID_0Corel-Layer"/>
  <g id="_2100456300576">
   <path class="fil0" d="M16395.4 471.44l-99.91 183.18 -66.62 233.15 0 1149.04 49.96 199.84 133.23 249.79 166.52 183.17 166.53 116.58 283.1 116.57 216.48 33.3 1881.77 -16.65 432.97 -183.18 299.75 -316.4 133.23 -366.37 0 -1182.35 -49.96 -183.18 -149.88 -266.44 -299.75 -266.45 -166.53 -83.26 -266.44 -66.61 -1898.42 0 -399.67 133.22 -166.52 116.57 -199.84 216.48zm466.28 366.37l149.88 -183.19 299.75 -116.56 1615.31 0 183.19 49.95 216.48 183.18 66.62 149.88 0 1099.09 -149.88 233.13 -266.44 133.23 -1731.9 0 -116.57 -33.31 -199.83 -149.87 -99.92 -199.84 0 -1065.77 33.31 -99.92zm-4646.13 -316.4l2497.92 16.65 183.18 49.95 216.49 183.18 66.61 133.23 16.65 1049.12 -49.96 149.88 -116.57 149.87 -283.1 133.23 -2214.82 0 -516.23 532.89 16.65 16.65 2864.28 -16.65 233.14 -66.62 266.45 -149.87 283.09 -333.06 116.57 -366.36 -16.65 -1165.69 -133.22 -333.06 -166.53 -199.83 -199.83 -149.88 -216.49 -99.92 -216.49 -49.95 -2114.9 0 -516.24 516.24zm-3946.71 -499.59l16.65 2914.24 582.85 -16.65 0 -2131.56 33.31 -33.31 2148.2 2181.52 699.42 -16.65 -16.65 -2914.24 -582.85 16.65 0 2114.91 -33.3 33.3 -2131.56 -2164.86 -716.07 16.65zm-8259.78 499.59l2547.87 16.65 133.23 33.3 199.83 133.23 99.92 166.52 16.65 149.88 -66.62 183.18 -133.21 133.22 -166.54 66.61 -2647.79 0 0 1532.06 566.2 -16.65 0 -932.56 33.3 -33.31 1332.22 0 982.52 965.87 799.34 0 -949.22 -949.21 316.41 -116.57 199.83 -133.22 199.84 -233.14 133.22 -366.36 0 -283.1 -133.22 -349.71 -199.84 -233.14 -166.52 -116.57 -416.32 -133.22 -2164.87 0 -516.23 516.24z"/>
   <polygon class="fil1" points="7486.16,5.17 6536.95,5.17 3722.62,2319.91 3722.62,2486.44 6586.91,2503.09 6620.21,2536.4 6636.86,3635.48 7386.24,2919.41 7386.24,1970.2 5171.42,1953.54 5138.11,1920.24 "/>
  </g>
 </g>
</svg>
