<?xml version="1.0" encoding="UTF-8"?>
<!DOCTYPE svg PUBLIC "-//W3C//DTD SVG 1.1//EN" "http://www.w3.org/Graphics/SVG/1.1/DTD/svg11.dtd">
<!-- Creator: CorelDRAW 2021 (64 Bit) -->
<svg xmlns="http://www.w3.org/2000/svg" xml:space="preserve" width="71.911mm" height="95.818mm" version="1.1" style="shape-rendering:geometricPrecision; text-rendering:geometricPrecision; image-rendering:optimizeQuality; fill-rule:evenodd; clip-rule:evenodd"
viewBox="0 0 7191.1 9581.8"
 xmlns:xlink="http://www.w3.org/1999/xlink"
 xmlns:xodm="http://www.corel.com/coreldraw/odm/2003">
 <defs>
  <style type="text/css">
   <![CDATA[
    .fil2 {fill:#151516;fill-rule:nonzero}
    .fil3 {fill:#1BA246;fill-rule:nonzero}
    .fil1 {fill:#1EAE4C;fill-rule:nonzero}
    .fil0 {fill:#26DF61;fill-rule:nonzero}
    .fil4 {fill:#88ECA3;fill-rule:nonzero}
    .fil5 {fill:white;fill-rule:nonzero}
   ]]>
  </style>
 </defs>
 <g id="Camada_x0020_1">
  <metadata id="CorelCorpID_0Corel-Layer"/>
  <g id="_2387094578032">
   <path class="fil0" d="M7091.54 7855.03l-231.92 -768.84 6.81 -5.35 95.3 -74.74 0 -121.1 0 -782.56c0,-99.64 -21.4,-196.28 -62.59,-284.85 4.34,-17.51 8.47,-34.52 12.45,-51.18 147.81,-618.53 234.3,-1281.84 257.05,-1971.52 17.1,-517.97 -9.73,-868.35 -12.84,-906.59l-7.31 -88.47 -14.6 -176.74 -171.83 -43.9 -602.68 -153.96c-36.11,-271.72 -111.44,-534.61 -224.75,-783.71 -138.63,-304.78 -330.46,-580.84 -570.15,-820.54 -528.63,-528.63 -1231.48,-819.76 -1979.07,-819.76 -747.59,0 -1450.44,291.13 -1979.07,819.76 -239.7,239.7 -431.53,515.77 -570.16,820.56 -113.31,249.1 -188.64,512.01 -224.74,783.72l-602.5 153.94 -171.46 43.79 -14.93 176.34 -7.46 88.17c-4.29,52.61 -93.47,1203.98 171.05,2543.17l-81.95 0 0 248.88 0 2247.37 0 248.86 248.88 0 829.94 0c59.75,0 118.9,-8.15 175.89,-24.03 556.76,695.04 1271.67,1167.13 2126.8,1404.1l0.5 0.15 0.5 0.14 33.25 9.06 65.46 17.84 65.46 -17.84 33.24 -9.06 0.5 -0.14 0.5 -0.15c845.19,-234.21 1553.69,-698.24 2107.73,-1380.07l1060.43 0 335.03 0 -96.76 -320.75z"/>
   <path class="fil0" d="M6426 5656.64c-443.71,1850.4 -1399.4,2997.54 -2840.58,3410.15 -1441.17,-412.61 -2396.86,-1559.75 -2840.57,-3410.15 -287.46,-1198.52 -255.64,-2323.27 -239.11,-2639.52l3079.68 -786.81 3079.68 786.81c16.53,316.25 48.36,1441 -239.1,2639.52z"/>
   <path class="fil1" d="M474.36 4890.6c0,0 1047.25,-2110.38 4814.45,-1638.35 0,0 1025.93,173.06 1493.34,826.35l0 -1035.13 -3195.19 -941.56 -3198.27 816.98 85.67 1971.71z"/>
   <path class="fil2" d="M3585.42 9066.79c-1441.17,-412.61 -2396.86,-1559.75 -2840.57,-3410.15 -287.46,-1198.52 -255.63,-2323.27 -239.1,-2639.52l3079.67 -786.81 3079.69 786.81c16.52,316.25 48.34,1441 -239.11,2639.52 -443.71,1850.4 -1399.4,2997.54 -2840.58,3410.15zm3322.33 -6158.3l-7.28 -88.16 -3315.05 -846.9 -3314.86 846.9 -7.47 88.16c-4.44,54.58 -107.37,1353.9 238.21,2800.05 204.26,854.36 523.89,1579.67 950,2155.63 537.04,725.84 1243.85,1214.35 2100.88,1451.85l33.24 9.06 33.25 -9.06c857.03,-237.5 1563.83,-726.01 2101.05,-1451.85 426.11,-575.96 745.57,-1301.27 949.83,-2155.63 345.58,-1446.15 242.65,-2745.47 238.2,-2800.05z"/>
   <path class="fil0" d="M3585.42 5225.56c-1337.42,0 -2425.5,-1088.07 -2425.5,-2425.51 0,-1337.43 1088.08,-2425.51 2425.5,-2425.51 1337.43,0 2425.51,1088.08 2425.51,2425.51 0,1337.44 -1088.08,2425.51 -2425.51,2425.51z"/>
   <path class="fil2" d="M3585.42 250.1c-681.12,0 -1321.46,265.24 -1803.08,746.86 -481.62,481.63 -746.87,1121.98 -746.87,1803.09 0,681.13 265.25,1321.47 746.87,1803.09 481.62,481.62 1121.96,746.87 1803.08,746.87 681.12,0 1321.47,-265.25 1803.09,-746.87 481.62,-481.62 746.87,-1121.97 746.87,-1803.09 0,-681.11 -265.25,-1321.46 -746.87,-1803.09 -481.62,-481.62 -1121.97,-746.86 -1803.09,-746.86zm0 248.88c1270.85,0 2301.08,1030.23 2301.08,2301.07 0,1270.85 -1030.23,2301.08 -2301.08,2301.08 -1270.84,0 -2301.07,-1030.23 -2301.07,-2301.08 0,-1270.84 1030.23,-2301.07 2301.07,-2301.07z"/>
   <path class="fil3" d="M5716.87 2716.26l-1.46 7.96 -163.53 859.02 -415.38 677.17c-0.16,0.16 -0.16,0.33 -0.33,0.33l-657.82 474.49c-271.68,125.85 -574.38,196.16 -892.99,196.16 -512.98,0 -984.07,-182.2 -1352.2,-485.21l37.35 -185.44 0.16 0c8.93,3.08 297.66,106.69 705.41,149.39 55.87,5.85 113.84,10.56 173.6,13.64 473.69,25.17 1061.37,-46.93 1558.77,-421.23 99.7,-74.87 195.68,-161.91 286.45,-262.75 6.17,-6.82 12.34,-13.8 18.18,-20.78 153.62,-177.66 257.23,-392.17 297.5,-623.73 42.06,-241.65 62.68,-585.74 -39.3,-956.63 -17.54,-63.5 -38.48,-127.8 -63.82,-192.6 -104.9,-269.89 -281.25,-547.09 -565.92,-803.82l281.74 0c72.27,58.3 140.63,121.14 204.45,188.37l176.35 266.81 410.84 1113.65 1.95 5.2z"/>
   <path class="fil4" d="M4075.29 895.4c-106.85,4.38 -208.83,12.34 -306.27,23.7 -85.9,9.91 -168.23,22.58 -247.15,37.68 -480.99,91.58 -833.86,272.98 -1091.9,499.67 -48.38,42.22 -93.21,86.23 -135.11,131.53 -729.28,788.07 -518.18,1967.01 -513.14,1994.78 0,0.16 0.17,0.33 0.17,0.49l-178.8 0c-96.13,-242.61 -149.07,-506.81 -149.07,-783.2 0,-1175.2 956.14,-2131.35 2131.34,-2131.35 111.08,0 220.2,8.61 326.73,25.01l163.2 201.69z"/>
   <path class="fil2" d="M3585.36 4766.57c-102.3,0 -202.66,-7.96 -300.9,-23.05 -60.57,-102.63 -105.55,-209.33 -134.78,-319.75 -36.05,-135.92 -48.23,-277.36 -36.54,-423.51 147.93,38.16 450.63,101.82 823.48,101.82 236.27,0 500.8,-25.66 771.83,-99.55 197.78,-53.91 399.15,-133.48 595.63,-247.8 -336.31,602.94 -980.66,1011.84 -1718.72,1011.84zm-1314.69 -505.84l-0.16 0 0 -0.15c-126.83,-114.01 -238.55,-244.4 -332.25,-387.79 -57.32,-860.01 721.17,-1758.99 929.02,-1982.44 259.5,213.54 468.66,513.31 622.76,892.82 -112.05,129.74 -449.97,559.09 -529.7,1099.04 -27.13,182.36 -21.61,358.71 15.74,527.91 21.92,98.9 54.89,195.2 98.58,288.9 -303.18,-81.52 -577.3,-234.01 -803.99,-438.29zm-488.95 -677.97c-104.58,-240.01 -162.71,-504.7 -162.71,-782.71 0,-475.63 169.85,-912.46 451.93,-1252.99 45.14,3.41 124.06,13.16 223.93,40.92 122.43,33.62 276.38,94.19 438.93,202.99 -214.03,229.94 -857.25,980.99 -951.92,1792.28 0,-0.16 -0.16,-0.33 -0.16,-0.49zm1537.65 -2731.04c30.7,12.99 104.09,46.6 202.5,105.06 315.36,188.04 886.15,633.97 1119.66,1491.53 -409.37,220.21 -850.09,260.8 -1000.95,267.95 -176.52,-432.76 -422.21,-770.21 -731.4,-1003.08 -171.32,-129.1 -337.61,-208.34 -479.21,-256.73 -84.27,-28.91 -159.79,-46.77 -222.31,-57.97 295.39,-290.36 681.55,-488.3 1111.71,-546.76zm755.92 43.68c203.15,52.29 393.8,136.41 566.24,246.83 264.7,169.05 486.36,399.8 644.69,671.8 -23.88,45.63 -50.18,89.64 -78.76,132.02 -107.99,161.42 -248.45,300.09 -419.45,414.26 -184.96,-638.52 -544.81,-1050.82 -821.68,-1287.91 -68.53,-58.62 -134.95,-109.45 -197.3,-153.3 -45.47,-31.98 -88.67,-60.08 -128.78,-84.76 149.72,4.22 295.39,25.17 435.04,61.06zm-939.26 2940.36c93.38,-474.01 401.27,-854.97 486.84,-953.71 145.02,-4.38 672.3,-39.62 1156.05,-321.52 196.81,-114.49 361.31,-255.76 492.36,-421.89 37.83,-47.9 72.91,-98.08 105.22,-150.2 112.54,247.64 175.38,522.39 175.38,811.61 0,235.62 -41.73,461.83 -118.05,671.47 -136.89,101.98 -278.33,183.34 -420.74,247.48 -800.58,360.99 -1634.29,182.04 -1877.06,116.76zm2579.38 -1111.55c0,-4.39 -0.16,-8.77 -0.49,-13.15 -21.92,-533.93 -241.31,-1017.85 -587.2,-1380.46 -63.81,-67.23 -132.18,-130.07 -204.44,-188.37 -285.64,-231.08 -632.17,-389.89 -1011.19,-448.51 -106.53,-16.41 -215.65,-25.02 -326.73,-25.02 -1175.2,0 -2131.34,956.14 -2131.34,2131.35 0,276.39 52.94,540.59 149.07,783.2 134.3,338.74 353.03,635.1 630.07,862.93 368.13,303.01 839.23,485.22 1352.2,485.22 318.61,0 621.31,-70.32 892.98,-196.17 248.94,-115.3 471.9,-277.2 657.83,-474.5 0.17,0 0.17,-0.15 0.33,-0.32 359.69,-381.61 580.37,-895.73 580.37,-1460.36 0,-25.33 -0.49,-50.66 -1.46,-75.84z"/>
   <path class="fil2" d="M6853.3 7926.9l-281.06 -931.63 140.63 -110.27 0 -782.55c0,-233.19 -185.96,-422.9 -414.52,-422.9l-829.94 0 0 0.7c-4.52,-0.14 -8.95,-0.7 -13.52,-0.7l-378.59 0 -451.34 0 -655.81 0 -318.99 0 -383.12 0 -37.59 213.26c-71.55,-127.2 -205.74,-213.26 -359.51,-213.26l-829.93 0 0 0.49c-3.13,-0.07 -6.17,-0.49 -9.31,-0.49l-419.65 0c-78.78,0 -152.23,22.95 -215.02,62.05 -61.96,-39.26 -134.47,-62.05 -213.01,-62.05l-829.94 0 0 2247.35 829.94 0c78.47,0 151.64,-22.77 214.27,-61.57 62.51,38.8 135.5,61.57 213.76,61.57l415.43 0c4.57,0 9,-0.55 13.53,-0.7l0 0.7 830.91 0 553.97 0 601.7 0 316.19 0 282.18 0 83.35 0 744.48 0c5.28,0 10.4,-0.62 15.62,-0.82l0 0.82 1384.89 0z"/>
   <path class="fil5" d="M1078.11 6540.97l-205.61 159.45 0 -497.24 165.75 0c29.36,0 39.86,33.55 39.86,62.91l0 274.88zm0 814.06c0,23.09 -14.67,48.25 -37.76,48.25l-167.85 0 0 -425.89 90.22 -77.65c0,0 115.39,31.47 115.39,88.14l0 367.15zm104.91 -1391.04l-545.51 0 0 1678.49 545.51 0c73.43,0 130.08,-65.03 130.08,-138.46l0 -637.85c0,-62.95 -132.19,-94.39 -132.19,-94.39 0,0 132.19,-33.58 132.19,-98.64l0 -547.61c0,-81.82 -48.26,-161.54 -130.08,-161.54z"/>
   <path class="fil5" d="M1921.57 7355.04c0,23.08 -16.78,48.25 -39.86,48.25l-130.07 0c-23.09,0 -35.68,-25.17 -35.68,-48.25l0 -1103.61c0,-23.09 12.59,-48.25 35.68,-48.25l134.28 0c23.07,0 35.65,25.16 35.65,48.25l0 1103.61zm109.12 -1391.05l-419.64 0c-73.43,0 -130.08,65.03 -130.08,138.46l0 1399.46c0,73.44 56.65,140.56 130.08,140.56l415.43 0c73.44,0 130.09,-65.02 130.09,-138.46l0 -1399.45c0,-73.44 -52.45,-140.57 -125.88,-140.57z"/>
   <path class="fil5" d="M2765.03 6656.37l-205.61 161.55 0 -614.74 163.65 0c23.09,0 41.96,25.16 41.96,48.25l0 404.94zm235 90.22l0 -644.14c0,-73.43 -56.65,-138.46 -130.09,-138.46l-545.5 0 0 1678.48 234.98 0 0 -570.69 54.56 -46.14 174.13 616.83 253.88 0 -226.6 -751.11 184.64 -144.77z"/>
   <path class="fil5" d="M3522.49 7134.72l90.23 -581.16 83.91 581.16 -174.14 0zm-16.78 -1170.73l-295.83 1678.48 230.78 0 39.87 -264.35 251.78 0 39.86 264.35 234.99 0 -279.06 -1678.48 -222.39 0z"/>
   <polygon class="fil5" points="4363.86,6876.66 4242.17,5963.99 3986.2,5963.99 4267.34,7642.47 4466.67,7642.47 4741.52,5963.99 4498.15,5963.99 "/>
   <path class="fil5" d="M5454.89 5963.99l-545.51 0 0 1678.49 543.42 0c77.62,0 132.17,-67.13 132.17,-144.77l0 -488.85 -234.99 0 0 346.18c0,23.08 -16.77,48.24 -39.86,48.24l-165.75 0 0 -623.11 216.1 0 0 -245.51 -216.1 0 0 -331.48 165.75 0c23.09,0 39.86,25.17 39.86,48.25l0 96.52 234.99 0 0 -245.5c0,-73.44 -56.64,-138.46 -130.08,-138.46z"/>
   <path class="fil5" d="M6193.44 6656.37l-205.62 161.55 0 -614.74 163.67 0c23.07,0 41.95,25.16 41.95,48.25l0 404.94zm50.37 234.99l184.63 -144.77 0 -644.14c0,-73.43 -56.65,-138.46 -130.09,-138.46l-545.5 0 0 1678.48 234.97 0 0 -570.69 54.57 -46.14 174.13 616.83 253.88 0 -226.59 -751.11z"/>
  </g>
 </g>
</svg>
